# xmcd CD database file
#
# Track frame offsets:
#	150
#	25280
#	26755
#	49807
#	75107
#	98720
#	123115
#	143757
#	171867
#	192777
#	215282
#	249325
#	271792
#	293185
#
# Disc length: 4299 seconds
#
# Revision: 5
# Processed by: cddbd v1.5.2PL0 Copyright (c) Steve Scherf et al.
# Submitted via: CDex 1.51
#
DISCID=b310c90e
DTITLE=Chuck Loeb - In a Heartbeat
DYEAR=1999
DGENRE=Jazz
TTITLE0=North, South, East and West
TTITLE1=Mingling With Mike
TTITLE2=Rhythm Ace/Funky Stuff
TTITLE3=Billy's Song
TTITLE4=Pocket Change
TTITLE5=New Life
TTITLE6=Vincent
TTITLE7=Santa Cruz
TTITLE8=On and On/Fire
TTITLE9=Sway
TTITLE10=Big Time
TTITLE11=Soulmate
TTITLE12=In a Hearbeat
TTITLE13=The Goodbye
EXTD=YEAR: 1999
EXTT0=
EXTT1=
EXTT2=
EXTT3=
EXTT4=
EXTT5=
EXTT6=
EXTT7=
EXTT8=
EXTT9=
EXTT10=
EXTT11=
EXTT12=
EXTT13=
PLAYORDER=
